<?xml version="1.0" encoding="utf-8"?>
<!-- Generator: Adobe Illustrator 24.0.0, SVG Export Plug-In . SVG Version: 6.00 Build 0)  -->
<svg version="1.1" id="Layer_1" xmlns="http://www.w3.org/2000/svg" xmlns:xlink="http://www.w3.org/1999/xlink" x="0px" y="0px"
	viewBox="0 0 792 417.6" style="enable-background:new 0 0 792 417.6;" xml:space="preserve">
<style type="text/css">
	.st0{fill:#000003;stroke:#000003;stroke-miterlimit:10;}
	.st1{fill:#FFFFFF;stroke:#231F20;stroke-miterlimit:10;}
	.st2{fill:none;stroke:#262626;stroke-width:0.25;stroke-linejoin:round;}
	.st3{fill:none;stroke:#262626;stroke-linejoin:round;stroke-miterlimit:4.0001;}
	.st4{fill:none;stroke:#262626;stroke-width:0.75;stroke-linejoin:round;}
	.st5{fill:none;stroke:#262626;stroke-linejoin:round;}
	.st6{fill:none;stroke:#262626;stroke-width:0.75;stroke-linecap:round;stroke-linejoin:round;}
	.st7{fill:#262626;}
</style>
<!-- <rect y="51.2" class="st0" width="792" height="291"/> -->
<rect x="53.3" y="56.2" class="st1" width="676.8" height="281"/>
<g id="line_art">
	<circle class="st2" cx="197.6" cy="252.8" r="2.9"/>
	<circle class="st2" cx="550" cy="255.2" r="2.9"/>
	<path class="st2" d="M600.9,172.7c0,0-2.4-1.2-2-1.9s8.4-0.2,9-0.9c0.7-1.3,0.7-2.9,0-4.2c-0.8-1.5,0.7,3.1,3,4.2
		c2.3,0.7,4.7,1.3,7,1.7c0.5,0.4,1.1,2.9,0,2.6c-2.6-0.7-5.2-1.1-7.8-1.2C606.4,172.7,600.9,172.7,600.9,172.7z"/>
	<path class="st2" d="M592.9,160l4.6,8.6c0,0,8.4,1,9,0c0-2.4-0.7-4.7-2.1-6.7C603.4,160.6,592.9,160,592.9,160z"/>
	<path class="st2" d="M619.5,181c0,0-13.7-0.1-14.5-1.1c-0.8-0.9-4-5.6-4-5.6"/>
	<path class="st2" d="M622.9,193.8c0-0.5-6-1.3-6.9-2.9c-0.8-1.6-2.4-6.2-2-6.9c2.2-0.4,4.5-0.2,6.5,0.8c1,1.2,1.8,2.5,2.4,4"/>
	<path class="st2" d="M612.5,182c-1.9-0.2-3.9-0.2-5.9,0c2.5,4,5.4,7.8,8.6,11.1c2.5,1.1,5,2.2,7.5,3"/>
	<path class="st2" d="M592.2,158c4.8-0.2,9.7,0.2,14.4,1.3c2.6,0.6,5.1,1.7,7.2,3.3"/>
	<path class="st2" d="M147.7,181.5c-4.4,0.2-8.7,1.9-12,4.9c-5,5-7.2,10.1-9.6,10.8c-5.1,1-10.2,1.6-15.4,1.7
		c-1.1-0.4-2.3-2.4-2.6-1.7"/>
	<path class="st2" d="M96.9,196.6c0.5-0.4,1.2-0.4,1.7,0c1.4,1.2,3.5,1.2,4.9,0c2.4-1.6,6.1-7.2,7-8.4c1-1.4,2.4-2.3,4-2.7l1.7-0.3"
		/>
	<path class="st2" d="M115.2,187.4c-1.1,1.9-1.9,4-2.4,6.1c0,1.6,0.7,3.8,2.4,3.6c1.8-0.3,4,0.4,4.9-1.7s3.8-11.1,2.4-11.3
		s-4.9-1.1-6.2,2.6"/>
	<path class="st2" d="M121.1,193.4c-1-1.2-1.4-2.7-1-4.2c0.8-2.1,1.5-2.4,2.9-2.8"/>
	<path class="st2" d="M93.5,197.1c0,0,6.1-10.1,8.4-10.8s24.3-5.7,31.7-5.7h10.1"/>
	<path class="st2" d="M146.3,184.1c-0.1,0.9-9,12.2-9.8,13.2s-7.3,1.6-7.3,1.6s7.8-11.1,10.5-12.5
		C141.7,185.4,144,184.6,146.3,184.1z"/>
	<path class="st2" d="M95.3,198.9c2.8-0.6,5.7-0.6,8.5,0c1.3,0.6,0.7,2.8,5,2.6c4.4-0.1,17.1-1.5,17.1-1.5"/>
	<circle class="st2" cx="198" cy="253.4" r="40.8"/>
	<circle class="st2" cx="550.3" cy="255.2" r="40.8"/>
	<path class="st2" d="M553.7,225.9c2.2,0.3,3.4,0.6,3.4,1.3s-3,4.4-3.6,6.2c-0.5,1.8-0.7,11.7-0.8,13.7c-0.1,2.1-0.9,3.6-2.9,3.7
		l0,0c-2,0-2.8-1.6-2.9-3.7s-0.4-11.9-1-13.7c-0.5-1.9-3.6-5.5-3.6-6.1s1.2-1,3.4-1.3L553.7,225.9z"/>
	<path class="st2" d="M547.1,248.1c0.1,1.6,1.4,2.8,3,2.8c1.6-0.1,2.8-1.4,2.8-3c-0.1-1.6-1.4-2.8-3-2.8S547,246.4,547.1,248.1
		C547.1,248,547.1,248.1,547.1,248.1z"/>
	<path class="st2" d="M578.8,248.9c0.5,2.2,0.6,3.4,0,3.7s-5.1-1.3-7.1-1.1c-1.9,0.2-11.1,3.5-13.1,4.1c-2,0.6-3.7,0.5-4.5-1.4l0,0
		c-0.7-1.9,0.5-3.2,2.4-4s11-4.6,12.5-5.7c1.5-1.2,3.9-5.3,4.5-5.6s1.3,0.8,2.4,2.7L578.8,248.9z"/>
	<path class="st2" d="M555.8,250.4c-1.5,0.6-2.2,2.3-1.6,3.8s2.3,2.2,3.8,1.6c1.5-0.6,2.2-2.3,1.6-3.8l0,0
		C559,250.5,557.3,249.8,555.8,250.4z"/>
	<path class="st2" d="M565.3,280.8c-1.9,1.1-3.1,1.7-3.5,1.2s-0.4-5.3-1.1-7.1s-6.8-9.5-8-11.2s-1.6-3.4,0-4.7l0,0
		c1.6-1.2,3.2-0.5,4.6,1s7.7,9,9.3,10.1s6.2,2,6.7,2.4c0.4,0.4-0.3,1.5-1.8,3.2L565.3,280.8z"/>
	<path class="st2" d="M556.6,259.4c-1-1.2-2.9-1.3-4.1-0.3c-1.2,1-1.3,2.9-0.3,4.1s2.9,1.3,4.1,0.3
		C557.5,262.4,557.7,260.6,556.6,259.4z"/>
	<path class="st2" d="M530.3,277.2c-1.6-1.5-2.4-2.4-2.2-3c0.3-0.5,4.9-2,6.4-3.2s7-9.4,8.2-11s2.7-2.4,4.4-1.5l0,0
		c1.6,1.2,1.4,2.9,0.4,4.7c-1,1.8-6.2,10.1-6.8,12s0,6.6-0.4,7.1c-0.4,0.6-1.6,0.1-3.6-0.8L530.3,277.2z"/>
	<path class="st2" d="M548.1,262.4c0.8-1.4,0.4-3.1-1-4c-1.4-0.8-3.1-0.4-4,1c-0.8,1.4-0.4,3.1,1,4l0,0
		C545.4,264.2,547.2,263.8,548.1,262.4L548.1,262.4z"/>
	<path class="st2" d="M523,243c0.9-2,1.6-3.1,2.2-2.9c0.6,0.2,3.3,4.2,4.9,5.2c1.6,1,11,4,12.9,4.7s3.2,1.9,2.7,3.8l0,0
		c-0.6,1.9-2.4,2.2-4.4,1.7c-1.9-0.5-11.5-3.1-13.4-3.1s-6.3,1.8-7,1.7c-0.6-0.2-0.6-1.4-0.3-3.6L523,243z"/>
	<path class="st2" d="M542.2,255.9c1.5,0.4,3.1-0.5,3.5-2c0,0,0,0,0-0.1c0.4-1.5-0.5-3.1-2.1-3.5c-1.5-0.5-3.2,0.3-3.6,1.8
		c-0.5,1.5,0.3,3.2,1.8,3.6C542,255.8,542.1,255.8,542.2,255.9z"/>
	<path class="st2" d="M550.2,279.2c3.2,0,4,0,5.2-0.6s1.1-2.4,0.9-3.9s-3.7-8-5.9-8.1h0.2c-2.2,0-5.8,6.6-6.1,8
		c-0.2,1.4-0.3,3.2,0.9,3.9c1.1,0.7,1.9,0.7,5.1,0.7"/>
	<path class="st2" d="M527.1,263.3c1.1,3,1.4,3.8,2.4,4.6c1.1,0.8,2.7,0.1,4-0.5s6.1-6.3,5.5-8.3v0.2c-0.8-2.1-8.2-3.2-9.6-2.9
		c-1.4,0.3-3.1,0.9-3.4,2.2c-0.2,1.3,0,2,1.2,5.1"/>
	<path class="st2" d="M535.7,235.8c-2.6,1.9-3.2,2.4-3.7,3.6s0.7,2.6,1.6,3.7c1,1,7.8,4.1,9.6,2.8H543c1.8-1.4,0.7-8.8,0-10
		s-1.7-2.8-3-2.6c-1.3,0.1-1.9,0.6-4.5,2.4"/>
	<path class="st2" d="M563.9,235.4c-2.6-1.8-3.3-2.3-4.6-2.4c-1.3-0.2-2.3,1.5-2.9,2.7c-0.6,1.2-1.4,8.7,0.4,10h-0.2
		c1.9,1.2,8.5-2.2,9.5-3.3c0.9-1.1,2.1-2.4,1.5-3.7s-1.2-1.6-3.9-3.4"/>
	<path class="st2" d="M573.1,262.4c1-3,1.3-3.8,1-5.1c-0.3-1.3-2.1-1.8-3.5-2.1c-1.4-0.2-8.7,1.1-9.5,3.2v-0.2
		c-0.7,2.1,4.5,7.6,5.7,8.2s3,1.2,4,0.4s1.2-1.6,2.2-4.7"/>
	<path class="st2" d="M201.4,223.6c2.2,0.3,3.4,0.6,3.4,1.3s-3,4.3-3.6,6.2c-0.5,1.9-0.6,11.7-0.8,13.7c-0.1,2.1-0.9,3.6-2.9,3.7
		l0,0c-2,0-2.8-1.6-2.9-3.7c-0.1-2.1-0.4-11.9-0.9-13.7s-3.6-5.5-3.7-6.1s1.2-1,3.4-1.3L201.4,223.6z"/>
	<path class="st2" d="M194.7,245.7c0.1,1.6,1.4,2.8,3,2.8c1.6-0.1,2.8-1.4,2.8-3c-0.1-1.6-1.4-2.8-3-2.8l0,0
		C195.9,242.7,194.6,244.1,194.7,245.7z"/>
	<path class="st2" d="M226.5,246.5c0.5,2.2,0.6,3.4,0,3.7s-5.1-1.3-7.1-1.2c-1.9,0.2-11.1,3.5-13.1,4.1s-3.7,0.5-4.5-1.4l0,0
		c-0.7-1.9,0.5-3.2,2.4-4s11-4.5,12.5-5.7s3.9-5.3,4.5-5.6s1.3,0.8,2.4,2.7L226.5,246.5z"/>
	<path class="st2" d="M203.4,248c-1.5,0.6-2.2,2.3-1.5,3.8c0.6,1.5,2.3,2.2,3.8,1.5c1.5-0.6,2.2-2.3,1.5-3.8
		C206.5,248.1,204.8,247.4,203.4,248z"/>
	<path class="st2" d="M212.9,278.4c-1.9,1.1-3.1,1.7-3.5,1.2s-0.4-5.3-1.1-7.1s-6.8-9.5-8-11.2s-1.6-3.4,0-4.7l0,0
		c1.6-1.2,3.2-0.5,4.6,1c1.4,1.5,7.8,9,9.3,10.1c1.6,1.1,6.2,2,6.7,2.4c0.4,0.4-0.3,1.5-1.8,3.2L212.9,278.4z"/>
	<path class="st2" d="M204.2,257c-1-1.2-2.9-1.3-4.1-0.3c-1.2,1-1.3,2.9-0.3,4.1s2.9,1.3,4.1,0.3C205.2,260,205.3,258.2,204.2,257z"
		/>
	<path class="st2" d="M177.9,274.8c-1.6-1.5-2.4-2.4-2.1-3s4.9-2,6.4-3.2c1.5-1.3,7-9.4,8.2-11c1.2-1.6,2.7-2.4,4.4-1.5l0,0
		c1.7,1.2,1.4,2.9,0.4,4.7c-1,1.8-6.2,10.1-6.8,12s0,6.6-0.4,7.1c-0.4,0.6-1.6,0.1-3.6-0.8L177.9,274.8z"/>
	<path class="st2" d="M195.7,260c0.8-1.4,0.4-3.1-1-4c-1.4-0.9-3.1-0.4-4,1c-0.9,1.4-0.4,3.1,1,4l0,0
		C193.1,261.8,194.9,261.4,195.7,260z"/>
	<path class="st2" d="M170.7,240.6c1-2,1.6-3.1,2.2-2.9c0.6,0.2,3.3,4.2,4.9,5.2s11,4,12.9,4.7s3.2,1.9,2.7,3.8l0,0
		c-0.6,1.9-2.4,2.2-4.4,1.7c-1.9-0.4-11.5-3.1-13.4-3.1s-6.3,1.8-7,1.7c-0.6-0.2-0.6-1.4-0.3-3.6L170.7,240.6z"/>
	<path class="st2" d="M189.9,253.5c1.5,0.5,3.2-0.3,3.6-1.8c0.5-1.5-0.3-3.2-1.8-3.6c-0.1,0-0.2-0.1-0.4-0.1
		c-1.6-0.3-3.1,0.7-3.4,2.3C187.7,251.6,188.5,253,189.9,253.5z"/>
	<path class="st2" d="M197.8,276.8c3.2,0,4,0,5.1-0.6c1.2-0.6,1.1-2.4,0.9-3.9c-0.2-1.4-3.7-8-5.9-8.1h0.2c-2.2,0-5.8,6.6-6,8
		s-0.3,3.3,0.8,3.9c1.1,0.7,1.9,0.7,5.1,0.7"/>
	<path class="st2" d="M174.7,260.9c1.1,3,1.3,3.8,2.4,4.6s2.7,0.1,4-0.5c1.2-0.7,6.2-6.3,5.5-8.4v0.2c-0.8-2.1-8.2-3.2-9.6-2.9
		s-3.2,0.9-3.4,2.2c-0.2,1.3,0,2,1.2,5"/>
	<path class="st2" d="M183.4,233.4c-2.6,1.9-3.2,2.4-3.7,3.6s0.6,2.7,1.6,3.7s7.8,4.1,9.6,2.8h-0.2c1.8-1.4,0.7-8.8,0-10
		s-1.7-2.7-3-2.6s-1.9,0.6-4.5,2.4"/>
	<path class="st2" d="M211.6,233c-2.6-1.8-3.3-2.3-4.6-2.4c-1.3-0.2-2.3,1.5-2.9,2.7s-1.4,8.7,0.4,10l-0.1-0.1
		c1.8,1.2,8.5-2.2,9.4-3.3s2.1-2.4,1.5-3.7s-1.2-1.6-3.9-3.4"/>
	<path class="st2" d="M220.7,260c1-3,1.3-3.8,1-5.1c-0.3-1.3-2.1-1.8-3.4-2.1s-8.8,1.1-9.5,3.1v-0.2c-0.7,2.1,4.5,7.6,5.7,8.2
		c1.3,0.6,3,1.3,4,0.4s1.2-1.6,2.3-4.7"/>
	<path class="st2" d="M497.4,255.9c0,0-77.3,2.1-102.9,3.3c-25.6,1.2-38.5,1-40.1,6.8"/>
	<path class="st2" d="M85.1,197.3c2.1-0.7,4-1.7,5.6-3.1c2.4-2.6,9.1-10,9.4-10.1"/>
	<path class="st2" d="M98.7,213.9c0,0,1.2,2.4,2.9,2.7c1.7,0.3,11-0.6,11.8,0c1.8,2.2,3.3,4.7,4.3,7.3c0.1,5.2-0.2,10.4-0.9,15.5
		c-0.4,3-0.3,9.1-10.3,9.6"/>
	<path class="st2" d="M488.1,221.5c0,0-10.7,1.6-89.3,9.4s-112.9,12.2-117.9,13.3c-3.9,1.3-7.6,3.3-10.9,5.8l204.8-5.4"/>
	<path class="st2" d="M539,139.6c0,0-2.6,14.5-20.4,16.2c-17.8,1.8-220.5,20.9-245.2,23.6s-42.6,6.2-56.5,4.6
		c-13.9-1.5-23.5-3.2-39.8,1.7s-30.4,20.4-37,31.8"/>
	<path class="st2" d="M601.9,212.7c0,0-15.8-31-52-30.6s-53.1,23.6-58.2,32.8"/>
	
		<ellipse transform="matrix(0.7071 -0.7071 0.7071 0.7071 -19.3452 463.8965)" class="st3" cx="550.3" cy="255.3" rx="45.1" ry="45.1"/>
	<circle class="st4" cx="550" cy="255.3" r="31"/>
	<circle class="st5" cx="198" cy="253" r="45.1"/>
	<circle class="st4" cx="197.6" cy="253" r="31"/>
	<path class="st4" d="M209.4,151.7c6.9-0.6,13.6-2,20.2-4.2c12.5-4.6,30.3-15.1,40-20.7c11.1-6.3,22.5-12.1,34.2-17.2
		c10.2-4.4,24.1-9.5,24.1-9.5c-2.6-0.7-5.2-1.8-7.6-3"/>
	<path class="st4" d="M102.2,183.9c-2.3,2.2-4.3,4.6-6.1,7.2c-3,4.3-4,6.1-4,6.1s1,3.1,3.2,3.5c2.2,0.3,5.9-0.8,8,0s4,2.6,6.1,2.4
		s26.3-2.4,28.1-2.9s6.4-6.9,9.8-11.9s5-7.3,3.7-8.7s-9.6-2.4-22.6,0s-28.4,4.5-33.4,5.8c-2.4,0.7-4.8,1.2-7.2,1.4"/>
	<path class="st2" d="M585.8,154.6c-4.9-12.4-6.8-17.5-9.2-37.6s-2.2-22.3-2.2-22.3"/>
	<path class="st4" d="M609.5,157.4c4.4,3.4,7.3,5.4,8.7,10.4c0.8,2.2,1.1,4.5,1,6.8l2.4,9.6c0,0,1.6,1.2,2.6,7.6s-0.6,6,0,8.4
		c0,0-9.2-2.6-13.9-7.8s-19.6-25.2-24.5-37.6C585.8,154.6,605.2,154,609.5,157.4z"/>
	<path class="st2" d="M638.5,242.6h-1c-3.2,0-4.4,0.6-5.4,3c-0.8,2-1.4,4-2,6l2,1.4c0,0-1.6,3.5-3.1,6.9"/>
	<path class="st2" d="M630.2,251.5c0,0-1.9,7.3-5.6,9.2s-22.9,2.2-22.9,2.2"/>
	<path class="st2" d="M626.8,219.3c0,0,0-3.4,2.3-4c2-0.4,4.1-0.6,6.1-0.5c0,0,1,0,0.8,1.6s0.6,4.5-2.6,4.5h-4.6
		C628.8,220.9,626.5,221.2,626.8,219.3z"/>
	<path class="st2" d="M497.8,243.3c-0.9-0.1-1.9-0.1-2.8,0c-1.8,0.1-3.7,0.1-5.5,0c-1,3-3.2,5.5-6.1,6.8c-5.4,3-13.6,3-23.6,2.9
		s-152.7,1.9-171.7,2.1c-19,0.3-21.9,0.2-26.1,0.4c-4.2,0.1-11.3,0.8-11.3,0.8"/>
	<path class="st4" d="M78.3,202.2c4.4-2.3,9-4,13.9-5"/>
	<polyline class="st4" points="87.8,263.5 87.8,270.2 145.3,272 145.7,267.1 	"/>
	<path class="st4" d="M81.4,252.6c3.4-1.3,6.4-1.8,8.6-7.3c2.4-6.6,3.2-16.9,3.8-20.5s1-6.6-0.4-8.7c-1.4-2.2-2.6-6.4-5.6-7
		c-2.1-0.3-4.3-0.3-6.4-0.2"/>
	<path class="st2" d="M79.5,235.9c2.1-0.9,4.3-1.4,6.5-1.7c3.1-0.2,3.7-0.3,3.7-0.3s-1.1,12.8-3.4,14.7s-9.3,3.6-8.8,5.9"/>
	<path class="st2" d="M85.8,211c-3,0.2-6,0.6-9,1.3c-0.2,0.5-0.3,1.4,0,1.4l6.9-0.4"/>
	<line class="st2" x1="587.3" y1="141.7" x2="580.9" y2="142.2"/>
	<path class="st4" d="M593.1,115.6c-3,11.1-5.8,26.1-5.8,26.1s12.8,0.6,18.2,3.4c5.4,2.8,8.1,3.8,10.5,3.2"/>
	<path class="st2" d="M624.6,165.7c0,0-1.9,0-1.9,3.6c0,1.2,0.1,2.9,0.2,4.9"/>
	<path class="st4" d="M118.2,226.5c0,0-7.9,3.3-8.9,4.7c-1.8,4.3-3,8.8-3.4,13.5c-0.4,4.9,0.6,4.5,1.6,4.4s6.4,0,8.1-2.7
		s2.7-5.9,3.2-13.3s1.1-9.8-0.8-13.1s-3.6-6.4-5.4-7.1s-15.3,0.7-16.4,1.6"/>
	<path class="st2" d="M89.8,233.9c0.8-5,1.4-10,1.6-15c-0.3-2.2-3.9-7.2-3.6-9.9"/>
	<path class="st2" d="M404.7,253.4c0,0-1.4-41.6,0-62.6s3.8-40.8,3.8-40.8l6-57"/>
	<path class="st2" d="M489.5,243.2c2.5-12.4,8.8-23.7,18-32.4c15.1-13.9,19.3-11.5,23.9-19.6c4.6-8.1,13.1-37.6,16.9-51.2
		c3.8-13.5,7.6-26.5,4.6-32.6s-9.8-7.7-37-10.3s-94.7-6-134.6-2.4s-60.3,11.1-80.1,21.1c-19.8,9.9-35.2,17.7-37.8,22.5
		c-2.6,4.8-3.7,12-5.6,23.1c-1.6,10.5-2.6,21-2.8,31.6c0.4,14.4,1.5,28.7,3.4,43c1.8,13.5,2,18.4,5.2,19.3"/>
	<path class="st4" d="M394.5,148.6c0,0,8.4-41.8,8.7-44.8c0.4-3-0.2-4.8-3.4-4.8c-3.2,0-44.8,3.2-56.9,6.8
		c-18.8,5.8-37,13.5-54.3,22.9c-17.8,10.3-40.3,23.1-43.7,25.5s-7.6,7.8,0,7.6s58.8-4.4,101.2-7.3s124.9-7.1,124.9-7.1
		s47-1.1,52.7-2.3c5.8-1.2,11.8-5.2,17.3-16.3c5.6-11.1,11.3-19.3,1.4-21.7c-9.9-2.4-32.2-6-66.1-7s-47.4-1-47.4-1s-4.4-1.6-5.2,4.8
		c-0.8,6.4-3,43.5-3,43.5"/>
	<path class="st2" d="M516.1,102.8c0,0,3-0.9,2.4,7.1s-2.4,36.4-2.4,36.4"/>
	<path class="st2" d="M542.2,118.3l-14.3-1.7c0,0-1.6-0.4-2,4s-1.2,15.5-1.2,15.5s-0.4,1.4,2.2,1.2c2.6-0.2,6,0.2,8.6-3.2"/>
	<line class="st2" x1="530.9" y1="116.9" x2="528.9" y2="137.2"/>
	<path class="st2" d="M255,153.8c3.1-1.5,6.3-2.7,9.6-3.7l3.2-0.6c0,0,1.7-7.8,5.7-10.4c4-2.7,7.2-4.4,10.7-3.8s8,5.8,7.6,12.5
		s-1.4,7.6-2.3,8c-0.8,0.4-4.5,0.2-6.7,1c-3.7,1.7-7.9,2.3-12,1.6c-7.2-0.8-14.2-1-15.9-1.6"/>
	<path class="st2" d="M286,135.9c1.5,2.1,2.6,4.4,3.4,6.8c0.8,3.1,0.6,3.4-0.9,3.5c-6.9,0.3-13.7,0.9-20.5,1.9"/>
	<path class="st2" d="M269,148c0.1,0.6,0.1,1.2,0,1.8c0,1.2-0.3,0.9-0.3,0.9l-1.6,0.5v1.9c1.7-0.1,3.3,0.1,4.9,0.7
		c1.6,1.2,3.5,2.1,5.4,2.7"/>
	<path class="st2" d="M289.6,155.8c0,0,92.8-6.6,125.7-8.3c0,0,105.3-3.7,109.4-5.5"/>
	<path class="st2" d="M373.4,175.7c0,0-0.9-1,4.4-1.5s10.2-0.7,11.7,0.3c0.4,0.2,7.5-0.3,8.4-1.2c0.8-0.9,1.1-2.2,0.6-3.4
		c-0.4-0.9-1.2-1.1-6.9-0.8c-5.7,0.3-14.7,1.3-18.9,1.9c-3.3,0.5-4.9,0.7-5.1,1.3c-0.2,0.7-0.8,2.4,0,2.7
		C369.6,175.4,371.5,175.6,373.4,175.7z"/>
	<line class="st2" x1="391.6" y1="169.1" x2="392" y2="174.5"/>
	<line class="st5" x1="242.2" y1="261.8" x2="250.1" y2="261.8"/>
	<line class="st5" x1="153.7" y1="261.4" x2="145.3" y2="263.5"/>
	<line class="st5" x1="594.4" y1="265.3" x2="601.7" y2="262.9"/>
	<line class="st5" x1="498" y1="266.1" x2="505.3" y2="258.4"/>
	<path class="st4" d="M522.3,89.8c0.6-1.8,1.9-3.2,3.6-4c5.4-1,10.9-1.3,16.3-1c2.1,0.3,4,1.1,5.6,2.4c0.8,0.6,1.3,1.6,1.3,2.6v2.4"
		/>
	<path class="st4" d="M544.8,85.5l14.5-24c0,0,2.8-1.6,1.6,1.2c-1.2,2.8-13.1,24.5-13.1,24.5"/>
	<path class="st2" d="M640.1,238.1c0,0-1.6,0-3.8,0s-4.6-1.2-8.2,6.3c-3.6,7.5-6.6,13-8.3,14.6c-1.8,1.5-17.9,2.4-17.9,2.4"/>
	<path class="st2" d="M80.2,215.6c0.8-0.3,1.5-0.7,2.2-1.2c1.9-1.6,3.5-3.5,4.9-5.6"/>
	<path class="st5" d="M80.7,211.6c-0.1-1,0.2-2,0.7-2.9c-2.9,0-5.7,0.2-5.7,0.2s1.3-6,2.4-6.8l1.2-0.6c0,0,0.7-2.2,1.7-2.7
		c0.5-0.3,2.1-0.8,3.9-1.4c-0.4-2.2-0.1-4.5,0.8-6.5c0.6-2,4.1-4.5,4.1-4.5l-2,0.3c4.1-5.8,9.8-10.4,16.4-13
		c17.1-7.3,35-12.4,53.4-15.3c26-4.6,32.8-5.4,36.7-5.6c2,0,8-0.2,15.1-1l0,0c0,0,71.5-41.4,116.6-56.8s140.7-9,159.8-8
		c19.1,1.1,71.6,5.8,90.6,8c19,2.1,26.5,2.6,26.5,2.6s1.2,1-5.6,6.4c-1.4,1.1-3,5.8-4.6,11.6l0,0c0,0,18.9,24,24.7,36.2
		s6.7,14,6.7,14c2.1,4.3,2.6,8.2,2,8.4c-1.2,0.1-2.5,0.1-3.7,0l0,0c0.3,3.8,0.2,7.7-0.2,11.5c0.7,1.9,1.3,4,1.6,6c1,6.3-0.6,6,0,8.4
		l8.4,10.3c3.1-0.4,5.9,1.8,6.4,4.9c0.9,4.7,0.9,9.6-0.2,14.3c-0.4,2.3,0.1,4.6,1.4,6.6v1.9c2,1.1,2,2.1,2,2.1v2.4h-3.6
		c0,0-1,3.6-1.8,5.4s2,2.4,1.8,3.6c-0.3,2.2-1.4,4.2-3.2,5.6c-1.8,1.4-4,2.4-6.3,2.7l0,0l-0.7,1.6c-1.6,3.8-3.8,3-3.8,3h-22.6
		c0,0,0.5-15.7-1.7-23.8c-2.1-8.1-11.5-28.9-31.7-35.9s-42.7-2.3-55.8,11.5s-14.9,27.1-14.9,27.1l0,0c1.3,0.2,0.9,0.6,0.9,0.6
		s-0.9,7.3-1.3,12.1c-0.1,4.4,0.3,8.8,1.1,13.2l-0.7,0.3l-2.8-0.2c-2.4,0.1-4.8-0.4-7-1.5c-2.4-1.3-4.4-1.6-11.1-1.7
		s-174.1,0.1-194,0.3c-19.9,0.2-22.3,2.4-23.2,2.7c-0.9,0.3-11.1,0-11.1,0s0.8-2.7,1.3-4.7c0.5-2.7,0.8-5.5,1.1-8.3
		c-0.3-13-0.4-16.7-5.4-28.3c-7.2-16.5-26.3-30.3-45-30.1s-36.1,7-48,25.9s-6.4,42.7-6.6,43.4c0,0-30.3,0.2-41.4-1
		s-20.1-3.4-21.9-3.6s-4.9-0.4-6-1.6c-1-1.4-1-3.2,0-4.6c1-1.6-0.6-1,3.4-3c0.5-0.3,1-0.5,1.5-0.7v-1.4c-0.8-0.7-1.3-1.7-1.2-2.8
		c-0.6-4.1-1-8.2-1.2-12.4l0.5-0.1l-1.6,0.4c-1.3-0.3-2.4-1-3.3-2c-1-1.4,0-10,0-10c0.1-2.5,0.5-5,1.2-7.3c0.5-0.6,2.4-0.5,4.4-1.2
		l0,0c-0.2-0.7-0.2-1.4,0-2.1"/>
</g>
<g id="rulers">
	<line class="st6" x1="75.1" y1="311.9" x2="310.6" y2="311.9"/>
	<rect x="74.2" y="305.9" class="st7" width="1.8" height="12"/>
	<line class="st6" x1="403.1" y1="311.9" x2="641.4" y2="311.9"/>
	<rect x="640.5" y="305.9" class="st7" width="1.8" height="12"/>
	<line class="st6" x1="684.7" y1="86" x2="684.7" y2="173.6"/>
	<rect x="678.7" y="85.1" class="st7" width="12" height="1.8"/>
	<line class="st6" x1="684.7" y1="211.1" x2="684.7" y2="299.5"/>
	<rect x="678.7" y="298.6" class="st7" width="12" height="1.8"/>
</g>
<g id="editable_text">
	<path class="st7" d="M323.1,309.6v-2.4l3.4-2.6h1.9v14.7h-2.1v-12.2l-3.2,2.4L323.1,309.6z"/>
	<path class="st7" d="M333.6,312.4h-2v-7.8h8v2h-5.9v3.7c0.7-0.7,1.7-1,2.7-1c1.8-0.2,3.5,1.1,3.9,2.9c0.1,0.5,0.2,1.1,0.1,1.6v1
		c0,0.6-0.1,1.2-0.2,1.8c-0.7,1.8-2.4,3-4.3,2.9c-2.4,0.1-4.4-1.8-4.5-4.2c0-0.1,0-0.2,0-0.3h2.1c-0.1,1.2,0.7,2.3,1.9,2.4
		c0.2,0,0.3,0,0.5,0c1,0,1.9-0.5,2.3-1.4c0.1-0.4,0.2-0.9,0.2-1.4v-0.8c0.1-0.4,0.1-0.8,0-1.2c-0.3-0.9-1.2-1.5-2.2-1.4
		C335.2,311.1,334.2,311.6,333.6,312.4z"/>
	<path class="st7" d="M342.7,315.7h2.1c0.2,1.2,1.2,1.9,2.4,1.8c0,0,0,0,0.1,0c1.5,0,2.4-1.1,2.4-2.8v-1.9l0,0
		c-0.8,0.9-1.9,1.5-3.1,1.4c-1.7,0.1-3.3-1-3.8-2.7c-0.1-0.5-0.2-1.1-0.2-1.6v-0.8c0-0.5,0.1-1.1,0.2-1.6c0.6-1.9,2.4-3.2,4.4-3.1
		c1.9-0.1,3.7,1.1,4.4,2.9c0.2,0.6,0.3,1.3,0.2,1.9v5.6c0,0.6-0.1,1.2-0.2,1.8c-0.7,1.8-2.4,2.9-4.3,2.9c-2.2,0.3-4.3-1.3-4.5-3.5
		C342.7,315.9,342.7,315.8,342.7,315.7z M344.8,307.9c-0.1,0.4-0.2,0.8-0.2,1.2v0.4c0,0.4,0,0.8,0.1,1.2c0.3,0.9,1.2,1.5,2.1,1.4
		c1.5,0.1,2.7-1.1,2.7-2.5c0-0.1,0-0.1,0-0.2v-0.3c0-0.5-0.1-0.9-0.2-1.3c-0.4-1-1.4-1.5-2.4-1.4s-1.9,0.7-2.2,1.7v-0.2L344.8,307.9
		L344.8,307.9z"/>
	<path class="st7" d="M354,319.3v-2.5h2.4v2.4H354V319.3z"/>
	<path class="st7" d="M367.5,308.2c0,1.4-0.8,2.6-2.1,3.2c1.5,0.6,2.4,2,2.4,3.6c-0.6,2.6-3.2,4.3-5.8,3.8c-1.9-0.4-3.4-1.9-3.8-3.8
		c0-1.6,1-3,2.4-3.6c-1.2-0.6-2-1.9-2.1-3.2c0.3-2.4,2.6-4.2,5-3.9C365.7,304.6,367.3,306.2,367.5,308.2L367.5,308.2z M363.1,312.5
		c-1.3,0.2-2.3,1.4-2.1,2.7s1.4,2.3,2.7,2.1c1.2-0.1,2.1-1.2,2.2-2.4c0-1.4-1.1-2.5-2.4-2.5C363.3,312.5,363.2,312.5,363.1,312.5
		L363.1,312.5z M363.1,310.5c1.2,0.1,2.3-0.8,2.4-2c0-0.1,0-0.2,0-0.3c-0.4-1.3-1.7-2.1-3-1.7c-0.8,0.2-1.5,0.9-1.7,1.7
		c0,1.2,1,2.2,2.2,2.2C363,310.5,363.1,310.5,363.1,310.5L363.1,310.5z"/>
	<path class="st7" d="M374.6,304.4h2.1v2.2h-2.1V304.4z M374.6,308.3h2v11h-2V308.3z"/>
	<path class="st7" d="M387.8,310.9c0.1,0.6,0.2,1.2,0.2,1.8v6.6h-2v-6.5c0-0.5-0.1-1-0.2-1.4c-0.3-0.8-1.1-1.4-1.9-1.3
		c-1,0.1-1.8,0.7-2.2,1.6c-0.2,0.4-0.3,0.9-0.3,1.3v6.4h-2v-11h1.5l0.3,1.4l0,0c1.1-1.7,3.4-2.1,5.1-1
		C387,309.2,387.6,310,387.8,310.9z"/>
	<path class="st7" d="M390.4,319.3v-2.5h2.4v2.4h-2.4V319.3z"/>
	<path class="st7" d="M663.1,188.8H661c-0.2-1.1-1.2-1.9-2.4-1.8h-0.1c-1.5,0-2.4,1.1-2.4,2.8v1.9l0,0c0.8-0.9,1.9-1.4,3.1-1.4
		c1.7-0.1,3.3,1,3.8,2.6c0.1,0.5,0.2,1.1,0.2,1.7v0.8c0,0.5,0,1.1-0.2,1.6c-0.5,1.9-2.3,3.2-4.2,3.1c-1.9,0.1-3.7-1.1-4.4-2.9
		c-0.2-0.6-0.3-1.3-0.2-2v-5.4c0-0.6,0.1-1.2,0.2-1.8c0.7-1.8,2.4-3,4.3-2.9C661,184.9,662.9,186.5,663.1,188.8L663.1,188.8z
		M661.1,196.7c0.1-0.4,0.2-0.8,0.2-1.3V195c0-0.4,0-0.8-0.1-1.2c-0.3-0.9-1.2-1.4-2.1-1.3c-1.5,0-2.7,1.1-2.7,2.6v0.1v0.3
		c0,0.5,0.1,0.9,0.2,1.4c0.4,0.9,1.3,1.5,2.3,1.4C659.8,198.2,660.7,197.6,661.1,196.7z"/>
	<path class="st7" d="M674.6,188.9c0,1.4-0.8,2.6-2.1,3.2c1.5,0.6,2.4,2,2.4,3.6c-0.5,2.7-3.1,4.4-5.8,3.8c-1.9-0.4-3.4-1.9-3.8-3.8
		c0-1.6,1-3,2.5-3.6c-1.2-0.6-2-1.9-2.1-3.2c0.3-2.4,2.6-4.2,5-3.9C672.8,185.4,674.4,186.9,674.6,188.9L674.6,188.9z M670.2,193.2
		c-1.3-0.1-2.6,0.8-2.7,2.2c0,0.1,0,0.2,0,0.3c0,1.5,1.2,2.7,2.7,2.7s2.7-1.2,2.7-2.7l0,0c0-1.4-1.1-2.5-2.4-2.5
		C670.4,193.2,670.3,193.2,670.2,193.2z M670.2,191.2c1.2,0.1,2.3-0.7,2.4-1.9c0-0.1,0-0.2,0-0.3c-0.4-1.3-1.7-2.1-3-1.7
		c-0.8,0.2-1.5,0.9-1.7,1.7C667.9,190.2,668.9,191.2,670.2,191.2C670.1,191.2,670.2,191.2,670.2,191.2z"/>
	<path class="st7" d="M676.9,200v-2.6h2.4v2.6H676.9z"/>
	<path class="st7" d="M684,191.3h1.3c2,0,2.8-1.1,2.8-2.4s-1-1.9-2.2-1.9c-1.1-0.2-2.2,0.5-2.4,1.7c0,0.1,0,0.3,0,0.4h-2.1
		c0.1-2.3,2-4.1,4.3-4c0.1,0,0.2,0,0.4,0c2.1-0.2,4,1.3,4.3,3.4c0,0.1,0,0.3,0,0.4c0,1.4-0.8,2.6-2,3.2c1.5,0.6,2.4,2,2.4,3.6
		c0,2.5-2.1,4.5-4.6,4.5c-0.1,0-0.3,0-0.4,0c-2.3,0.3-4.4-1.3-4.7-3.6c0-0.2,0-0.4,0-0.5h2.1c0,1.4,1,2.2,2.7,2.2
		c1.3,0.1,2.5-0.9,2.6-2.2c0-0.1,0-0.3,0-0.4c0-1.4-1-2.4-3.1-2.4H684V191.3z"/>
	<path class="st7" d="M697.2,185.1h2.1v2.2h-2.1V185.1z M697.2,189h2v11h-2V189z"/>
	<path class="st7" d="M710.5,191.6c0.1,0.6,0.2,1.2,0.2,1.8v6.6h-2v-6.5c0-0.5-0.1-1-0.2-1.4c-0.3-0.8-1.1-1.4-1.9-1.3
		c-1,0.1-1.8,0.7-2.2,1.6c-0.2,0.4-0.3,0.9-0.3,1.3v6.4h-2v-11h1.5l0.3,1.4l0,0c0.6-1.1,1.8-1.7,3.1-1.6
		C708.7,188.8,710.2,189.9,710.5,191.6z"/>
	<path class="st7" d="M713,200v-2.6h2.4v2.6H713z"/>
</g>
</svg>
